<?xml version="1.0" encoding="UTF-8"?>
<svg version="1.1" xmlns="http://www.w3.org/2000/svg" width="725" height="637">
<path d="M0 0 C239.25 0 478.5 0 725 0 C725 210.21 725 420.42 725 637 C485.75 637 246.5 637 0 637 C0 426.79 0 216.58 0 0 Z " fill="#FEFEFE" transform="translate(0,0)"/>
<path d="M0 0 C7.79735404 4.01681875 12.39923817 8.9714444 15.1875 17.3125 C16.53549439 25.64662182 14.49071731 32.04616065 10.08984375 39.0625 C6.31531287 44.18050797 1.03711498 46.36262834 -4.8125 48.3125 C-12.83212601 49.24656626 -19.240575 48.14085306 -25.8125 43.3125 C-31.84745668 37.23283994 -34.79916661 31.50436989 -35.1875 22.9375 C-35.04703802 16.04549874 -32.89543353 11.66247629 -28.375 6.5625 C-19.75174455 -1.00913893 -11.30063517 -4.7229389 0 0 Z " fill="#030303" transform="translate(445.8125,117.6875)"/>
<path d="M0 0 C6.71153453 3.69961372 10.24060271 7.88275678 13.0625 14.9375 C14.6612782 24.05053573 13.51723956 30.36696512 8.58984375 38.2578125 C4.80332033 43.3664102 -0.46117969 45.5495599 -6.3125 47.5 C-14.41185265 48.44335222 -20.58872488 47.17125429 -27.3125 42.5 C-32.81865253 37.71406151 -35.69317562 32.08300045 -36.6640625 24.8984375 C-37.08809988 16.97563376 -34.96803331 10.61573109 -29.66796875 4.6484375 C-20.87388984 -3.41114724 -10.78714857 -4.91176616 0 0 Z " fill="#030303" transform="translate(306.3125,118.5)"/>
<path d="M0 0 C7.20935254 4.01275283 12.4743198 10.02267931 14.8125 18 C16.24487921 26.37503352 13.51949145 33.09375884 8.8125 40 C3.29600754 45.57025944 -2.64468384 48.28092436 -10.5 48.375 C-17.54130679 48.2321099 -21.99619134 47.03013146 -27.12109375 42.1640625 C-33.31775071 35.43920817 -35.74220764 30.18264496 -35.46875 20.96484375 C-34.76977216 13.59645234 -31.76310512 7.90354558 -26.1875 3 C-17.89575828 -2.18233857 -9.18322328 -4.18440449 0 0 Z " fill="#030303" transform="translate(164.1875,259)"/>
<path d="M0 0 C6.91378989 4.01671599 10.42273739 9.60024341 12.9296875 17.12109375 C13.93295142 24.93222002 12.15174267 30.55345237 7.9296875 37.12109375 C3.5590672 42.74046271 -2.80785061 46.36210837 -9.8125 47.609375 C-17.60736708 47.99580609 -24.07346291 45.67103822 -29.921875 40.4765625 C-35.48646888 34.40485046 -37.6915192 28.16548124 -37.41015625 19.9609375 C-36.59225315 13.12627593 -34.33675777 7.8877819 -29.2578125 3.18359375 C-20.20392939 -3.87310926 -10.31612838 -5.30491299 0 0 Z " fill="#030303" transform="translate(660.0703125,471.87890625)"/>
<path d="M0 0 C6.86073114 3.97610555 10.93612294 8.96723587 13.0859375 16.62109375 C14.57371174 23.85265213 13.76479134 29.06229285 10.1796875 35.57421875 C6.08205817 41.56230026 0.55059402 45.88926555 -6.4375 47.9375 C-15.0039716 49.07969621 -21.86137201 46.78059588 -28.75 41.6875 C-35.01398264 35.27784335 -36.87284041 27.86381752 -36.77734375 19.078125 C-36.07056174 12.5464844 -32.78547506 7.90133072 -28 3.5625 C-26.8299108 2.66435051 -25.64347552 1.78685522 -24.4375 0.9375 C-23.138125 0.009375 -23.138125 0.009375 -21.8125 -0.9375 C-14.57248116 -3.35083961 -6.96605098 -3.19321247 0 0 Z " fill="#030303" transform="translate(659.4375,330.0625)"/>
<path d="M0 0 C4.55435911 2.58787018 7.68563045 5.63030502 10.625 9.9375 C11.553125 11.2678125 11.553125 11.2678125 12.5 12.625 C15.08798533 20.24517903 14.37695241 27.72216944 10.890625 34.90234375 C6.50753604 41.95045902 1.32238137 45.06050845 -6.375 47.9375 C-12.95676447 49.31192729 -18.2471403 47.78284172 -24.046875 44.5546875 C-30.01609146 40.40828546 -34.2890784 34.93147244 -36.375 27.9375 C-37.40563351 20.05533105 -35.6630332 12.53578991 -30.8125 6.1875 C-22.5399477 -2.53221729 -10.98609595 -4.96518751 0 0 Z " fill="#030303" transform="translate(94.375,330.0625)"/>
<path d="M0 0 C7.20935254 4.01275283 12.4743198 10.02267931 14.8125 18 C15.98526483 26.79573626 13.43749772 32.9852976 8.6875 40.25 C2.95070152 45.73737246 -2.78245885 48.28952458 -10.75 48.625 C-18.72408585 48.27789273 -24.14269875 45.46508764 -29.5625 39.6875 C-34.27948605 33.59472636 -35.84948149 27.49119386 -35.59375 19.80859375 C-34.6203239 13.07884984 -31.64425557 7.77396451 -26.3125 3.5625 C-17.71025872 -2.10278204 -9.67693018 -4.35314792 0 0 Z " fill="#030303" transform="translate(305.1875,259)"/>
<path d="M0 0 C7.16380741 4.03177714 12.4212998 10.05502286 14.75 18 C15.91939964 25.76533919 13.96876664 31.48008792 9.75 38 C4.99508105 43.75595452 -1.03249871 47.35925423 -8.4765625 48.2734375 C-16.18971948 48.60005327 -22.28001225 46.51866283 -28.10546875 41.35546875 C-34.30414055 34.57519317 -35.89980592 28.29808493 -35.66015625 19.22265625 C-34.82285026 12.64382347 -31.67771107 8.05910571 -26.875 3.625 C-18.69301566 -2.69584627 -9.53719613 -4.29681896 0 0 Z " fill="#030303" transform="translate(164.25,118)"/>
<path d="M0 0 C5.81404934 3.7297675 8.87293976 8.51967663 11 15 C12.35859028 23.31588725 10.86623939 30.12352569 6 37 C1.45548716 42.10583034 -3.87821727 45.47456028 -10.7578125 46.3515625 C-18.19108357 46.71277005 -23.96023933 45.45714959 -30 41 C-35.39827034 35.54466549 -39.04140412 28.92328846 -39.5 21.1875 C-39.25285905 14.41171882 -36.64067187 8.93899045 -32.1328125 3.921875 C-22.01624014 -5.44677956 -11.9848932 -6.19696696 0 0 Z " fill="#030303" transform="translate(591,261)"/>
<path d="M0 0 C5.48437747 3.73791145 8.59720177 8.61968491 10.7109375 14.84765625 C11.70638089 22.38293124 10.68237506 29.31758945 6.7109375 35.84765625 C1.92068886 41.36527453 -3.67530522 45.2652103 -11.04296875 46.1953125 C-19.37017725 46.61007767 -25.7990498 44.75861869 -32.13671875 39.23828125 C-37.07225287 33.95107517 -39.36166451 28.15969093 -39.7890625 20.97265625 C-39.54041075 14.22797764 -36.90676359 8.76108089 -32.421875 3.76953125 C-22.18079464 -5.71442644 -12.07749116 -6.56655367 0 0 Z " fill="#030303" transform="translate(450.2890625,261.15234375)"/>
<path d="M0 0 C6.86875676 3.91397857 11.33958251 9.3194417 13.625 16.9375 C14.73418942 25.94795237 12.73638692 32.98032282 7.375 40.25 C2.36025036 45.15077805 -3.9529658 48.0374704 -11 48.25 C-17.85540597 48.16993686 -22.98072816 45.95932955 -28.1875 41.5625 C-33.80008133 34.8274024 -36.87913104 29.37656647 -36.6953125 20.56640625 C-35.9307102 14.2910727 -32.82393729 8.38643729 -28.375 3.9375 C-19.61965921 -2.3137778 -10.23233922 -4.73575639 0 0 Z " fill="#030303" transform="translate(94.375,471.0625)"/>
<path d="M0 0 C6.34731665 3.71073897 10.61268432 8.22899958 13.03125 15.1875 C14.37057976 23.81753614 13.15720061 31.06023366 8.03125 38.1875 C3.47373127 43.2971172 -1.87873207 46.72991512 -8.796875 47.50390625 C-17.15460184 47.82939561 -22.42183851 46.25074175 -28.71875 40.8125 C-34.35748292 34.23397826 -37.56054712 28.59927455 -37.33984375 19.875 C-36.27197945 12.14141431 -32.01058013 6.34838801 -26 1.59375 C-17.632642 -4.1990363 -8.97831996 -4.55238758 0 0 Z " fill="#030303" transform="translate(588.96875,118.8125)"/>
<path d="M0 0 C6.33289858 4.17877137 10.80594228 9.62397426 13 16.9375 C14.11425155 24.9724917 12.7046571 31.30359502 8 37.9375 C2.82894442 43.46694557 -1.78452022 47.12472385 -9.53393555 47.41967773 C-17.74437229 47.48965577 -23.6186174 46.64187934 -30 40.9375 C-36.06775933 34.49500969 -37.50488997 27.5999144 -37.30078125 18.8984375 C-36.49358145 10.95223689 -32.15547994 6.6993277 -26.31640625 1.6015625 C-18.94006946 -3.69745853 -8.060157 -4.167156 0 0 Z " fill="#030303" transform="translate(660,189.0625)"/>
<path d="M0 0 C6.2473481 3.92995573 12.41618902 10.61283763 14.16015625 17.9375 C15.1703 26.87095876 12.88443539 33.60749661 7.53515625 40.75 C2.28158472 46.3975894 -4.44187396 48.14304032 -11.96484375 48.4375 C-20.19583745 48.09015628 -24.65693142 45.47624982 -30.21484375 39.5 C-35.52380905 33.41901384 -36.36356266 28.23338317 -36.2109375 20.296875 C-35.5340619 14.16936958 -33.35124029 9.32954304 -28.8671875 5.05859375 C-26.90954469 3.54004839 -24.97418204 2.19349231 -22.83984375 0.9375 C-22.2571875 0.56625 -21.67453125 0.195 -21.07421875 -0.1875 C-14.96523099 -2.57983087 -6.12198549 -2.2904815 0 0 Z " fill="#020202" transform="translate(164.83984375,400.0625)"/>
<path d="M0 0 C1.18621091 0.71868963 2.35574786 1.46622825 3.5 2.25 C4.386875 2.806875 5.27375 3.36375 6.1875 3.9375 C11.91029986 9.66029986 14.03025142 15.12109604 14.1875 23.25 C14.10780618 30.349323 12.45859134 35.13255218 7.5 40.25 C7.00886719 40.75917969 6.51773438 41.26835937 6.01171875 41.79296875 C0.72119591 46.65568651 -5.08554948 48.82048778 -12.171875 48.53125 C-19.64440669 47.62852805 -25.45673767 44.88273455 -30.5 39.25 C-35.66070038 32.00305903 -36.26232219 24.94944141 -35.5 16.25 C-33.70690954 9.17456195 -28.26342352 4.3903346 -22.5 0.25 C-15.79853187 -3.12263429 -6.77917549 -3.27982967 0 0 Z " fill="#020202" transform="translate(517.5,329.75)"/>
<path d="M0 0 C6.45545144 3.65912867 11.41568651 8.86458579 13.6875 16 C14.65027514 25.06509063 13.62690758 32.49788206 8 39.75 C3.79709167 44.35218462 -2.23077008 47.47574111 -8.44140625 48.2734375 C-15.44401167 48.56568107 -20.55186886 47.02375743 -26.3125 43 C-31.8451699 37.83549298 -35.49846752 33.21080289 -35.79516602 25.46630859 C-35.86275022 17.31241677 -35.13796769 11.23988105 -29.3125 5 C-20.67539069 -2.1535242 -10.62374828 -4.85563955 0 0 Z " fill="#020202" transform="translate(235.3125,330)"/>
<path d="M0 0 C6.37694512 2.75828182 11.74361505 8.68375793 14.796875 14.83984375 C17.05612361 22.13810275 16.26223766 29.77185315 12.79296875 36.515625 C9.25802595 42.11165823 3.86236663 46.32452362 -2.40625 48.4140625 C-17.65544769 49.68030667 -17.65544769 49.68030667 -23.765625 44.96484375 C-30.14909984 38.93094015 -34.41972144 33.20476797 -34.90625 24.1015625 C-34.68957988 17.24348224 -32.3426171 11.65089507 -27.7265625 6.5625 C-19.65226295 -0.72231248 -10.62568403 -2.58742306 0 0 Z " fill="#020202" transform="translate(92.40625,187.5859375)"/>
<path d="M0 0 C5.46377935 4.19923653 10.41494027 9.34157813 12.5 16 C13.50283712 25.10716039 12.67054441 31.77362157 6.95703125 38.93359375 C2.08884702 44.2919384 -2.44156075 46.59313892 -9.6171875 47.3125 C-17.76497963 47.61357315 -23.31482449 46.74552071 -29.43359375 41.26953125 C-34.77584605 35.70514788 -37.05976123 30.1088952 -37.875 22.5 C-36.86164984 13.04206522 -33.18564262 6.61877146 -25.79296875 0.61328125 C-18.71487704 -3.78161229 -7.22144048 -4.1607909 0 0 Z " fill="#020202" transform="translate(589.5,542)"/>
<path d="M0 0 C5.67000056 3.64805696 9.51235627 8.07924934 12.0703125 14.33203125 C12.40719331 17.06638052 12.59577365 19.48236581 12.5703125 22.20703125 C12.56459229 22.91520996 12.55887207 23.62338867 12.55297852 24.35302734 C12.30829765 31.50561761 10.23569006 35.06139173 5.42578125 40.03125 C-0.63037936 45.67728687 -6.80961289 48.00366479 -15.0859375 47.7421875 C-22.43451174 46.68229698 -28.06852249 42.98093716 -32.67578125 37.2734375 C-37.39603038 29.96513901 -37.78238709 23.88843055 -36.9296875 15.33203125 C-35.21147817 8.57806375 -30.45393566 4.28689073 -24.9296875 0.33203125 C-17.04435485 -4.28014445 -8.07171071 -4.09371708 0 0 Z " fill="#020202" transform="translate(518.9296875,471.66796875)"/>
<path d="M0 0 C5.75557121 3.57701616 10.36796133 8.96227201 12.36328125 15.46875 C13.24030573 23.11271072 13.24561881 30.01840559 8.91015625 36.5703125 C3.76156586 42.88903707 -1.89801933 46.62066634 -10.015625 47.8203125 C-16.83213338 48.22567607 -22.06050623 46.35435202 -27.63671875 42.46875 C-32.84071994 37.69761398 -36.19476048 33.18714895 -37.04296875 26.05078125 C-37.25488447 17.53000318 -36.64575999 11.01518518 -30.63671875 4.46875 C-21.37489081 -3.21793713 -11.18553345 -4.99513455 0 0 Z " fill="#020202" transform="translate(236.63671875,471.53125)"/>
<path d="M0 0 C0.70817871 0.00572021 1.41635742 0.01144043 2.14599609 0.01733398 C9.29858636 0.26201485 12.85436048 2.33462244 17.82421875 7.14453125 C23.25231622 12.96692152 25.75132777 18.96467379 25.47265625 26.94921875 C24.37242783 35.02168121 19.76844559 41.83297988 13.453125 46.8203125 C7.23969236 50.61741023 0.15921233 50.2898063 -6.875 49.5 C-13.59069897 47.7752619 -18.01060047 43.07168715 -21.875 37.5 C-25.28741981 31.58271883 -25.73691377 25.1994207 -24.875 18.5 C-22.74779092 11.25735957 -17.48479593 5.70197552 -11.140625 1.83203125 C-7.35975344 0.28983364 -4.02542227 -0.03761632 0 0 Z " fill="#020202" transform="translate(294.875,398.5)"/>
<path d="M0 0 C5.97264262 3.70987934 10.80408499 9.30150412 12.7734375 16.1015625 C13.9965211 24.44391576 12.70449131 31.22185128 7.7734375 38.1015625 C2.80755142 43.59768693 -1.87300289 46.63703877 -9.375 47.4375 C-17.53278905 47.53626258 -23.08917242 46.95476821 -29.16015625 41.30078125 C-35.14703111 34.89071773 -37.92375532 28.77879443 -37.6328125 19.94140625 C-36.4980128 12.00871992 -32.29738458 6.51580037 -26.2890625 1.4765625 C-18.86394858 -3.47351344 -8.10153836 -3.65765656 0 0 Z " fill="#020202" transform="translate(95.2265625,47.8984375)"/>
<path d="M0 0 C6.07152612 3.71997224 11.43791951 9.74311482 13.5625 16.5625 C14.68376949 24.90710555 13.45584776 31.66509273 8.5625 38.5625 C4.13119053 43.43694041 -1.14292695 47.09901962 -7.76953125 48.03125 C-16.72040969 48.11161703 -22.52447804 47.02101332 -29.2109375 40.953125 C-34.19953386 35.64817862 -36.5067743 29.93049272 -36.9375 22.6875 C-36.68813375 15.92344034 -34.06464714 10.37692892 -29.46484375 5.44921875 C-21.36655063 -1.86195056 -10.48489331 -4.58321684 0 0 Z " fill="#020202" transform="translate(447.4375,400.4375)"/>
<path d="M0 0 C6.86030205 3.10123243 10.91915531 7.80309891 14.1328125 14.51953125 C16.04184795 20.30656248 16.03585305 26.96352105 14.1640625 32.76171875 C10.96697518 39.02671814 5.95333274 44.22099431 -0.3828125 47.33203125 C-6.98078272 49.42286785 -14.86006913 49.03283051 -21.1875 46.19140625 C-28.18016611 42.2042273 -31.22190771 37.6176456 -33.99609375 30.16015625 C-34.32609375 29.50015625 -34.65609375 28.84015625 -34.99609375 28.16015625 C-36.0306928 20.4745633 -34.4230605 14.4980439 -29.99609375 8.16015625 C-21.57002012 -0.86658797 -12.05854 -3.38016441 0 0 Z " fill="#020202" transform="translate(586.99609375,399.83984375)"/>
<path d="M0 0 C6.82254092 4.14703468 12.99985311 8.96142096 15.1875 16.9375 C16.39982659 25.28523453 15.12277935 32.05189339 10.1875 38.9375 C5.22161392 44.43362443 0.54105961 47.47297627 -6.9609375 48.2734375 C-15.11872655 48.37220008 -20.67510992 47.79070571 -26.74609375 42.13671875 C-32.73296861 35.72665523 -35.50969282 29.61473193 -35.21875 20.77734375 C-34.0839503 12.84465742 -29.88332208 7.35173787 -23.875 2.3125 C-16.74772192 -2.43901872 -8.05222946 -2.24406395 0 0 Z " fill="#020202" transform="translate(445.8125,541.0625)"/>
<path d="M0 0 C5.82340184 3.99031566 10.08179246 9.61520988 12.03515625 16.39453125 C13.14101418 24.44617098 11.7322806 30.73932855 7.03515625 37.39453125 C2.18080071 42.77718421 -2.36556681 46.04274519 -9.72265625 46.60546875 C-18.14444863 46.87986299 -24.37467994 46.04672068 -30.71484375 40.26953125 C-36.71439994 33.69335868 -38.69233018 27.11458959 -38.34375 18.25390625 C-37.33536843 10.64426392 -32.93947294 5.03192311 -26.96484375 0.39453125 C-19.01567869 -4.44707684 -8.14651535 -4.18414491 0 0 Z " fill="#020202" transform="translate(307.96484375,542.60546875)"/>
<path d="M0 0 C6.40259293 2.93937221 11.10604757 6.89199995 14.10546875 13.32421875 C16.73172145 20.44051638 16.79186239 26.71731416 14.17578125 33.84765625 C11.06469632 40.29125563 6.28940854 44.93214102 -0.3984375 47.5 C-8.23197572 49.428069 -15.76731879 48.76113112 -22.921875 45.12109375 C-25.671875 42.74609375 -25.671875 42.74609375 -27.921875 40.12109375 C-28.64375 39.29609375 -29.365625 38.47109375 -30.109375 37.62109375 C-34.7191828 31.26273817 -34.65042929 24.72941385 -33.921875 17.12109375 C-31.93461148 9.87412678 -26.45834217 4.22425737 -20.1171875 0.453125 C-13.78206889 -2.18779853 -6.53677535 -1.96627601 0 0 Z " fill="#020202" transform="translate(162.921875,540.87890625)"/>
<path d="M0 0 C5.86612531 3.33452856 10.00814295 7.78731695 13.125 13.75 C14.60957768 22.32755991 14.75611628 30.60294375 9.6875 38 C4.04765733 44.27600714 -2.0775906 48.03181325 -10.625 48.5 C-17.6950516 48.2672411 -23.18113284 45.82402927 -28.421875 41.09765625 C-34.53022517 34.52234543 -35.75181062 28.82443282 -35.5546875 19.96484375 C-34.9761637 12.8825927 -32.49884857 8.32160797 -27.25 3.54296875 C-19.08183053 -2.96192427 -9.71673472 -4.36291742 0 0 Z " fill="#020202" transform="translate(376.3125,471)"/>
<path d="M0 0 C5.40898634 3.5194748 9.66630345 7.76401813 11.59375 14.03125 C13.14496241 22.08931799 12.69385806 28.9504548 8.578125 36.1328125 C4.09336864 42.50230192 -1.36585051 45.76085083 -8.96484375 47.32421875 C-16.27935465 48.48117126 -21.8875965 46.42739419 -27.96484375 42.32421875 C-33.33223554 37.57700879 -36.5503625 32.18349974 -37.31640625 25.05078125 C-37.57795257 18.59471677 -37.5821025 13.34417704 -33.58984375 8.0703125 C-24.2564917 -1.95855376 -13.1790955 -6.81677354 0 0 Z " fill="#020202" transform="translate(377.96484375,330.67578125)"/>
<path d="M0 0 C5.84923236 4.00801526 10.01046879 9.60587331 12.03515625 16.39453125 C12.98649199 23.67023983 11.62100491 30.4421772 7.59375 36.59765625 C2.83777046 42.55642412 -2.29827734 45.8589227 -9.92578125 46.734375 C-18.19899226 46.99486653 -24.50843186 45.92484525 -30.71484375 40.26953125 C-36.71439994 33.69335868 -38.69233018 27.11458959 -38.34375 18.25390625 C-37.33536843 10.64426392 -32.93947294 5.03192311 -26.96484375 0.39453125 C-19.01567869 -4.44707684 -8.14651535 -4.18414491 0 0 Z " fill="#020202" transform="translate(660.96484375,48.60546875)"/>
<path d="M0 0 C8.58523638 2.92500901 13.07667699 9.15335397 17 17 C17.83352299 25.44073916 17.93724734 32.72992624 12.92578125 39.90625 C8.76197964 44.43322294 3.10104977 48.69377134 -3.125 49.30859375 C-11.75735132 49.59575866 -18.36187934 49.10558486 -25 43 C-30.89783145 35.78482505 -32.63690287 30.21030564 -32.3984375 20.91015625 C-31.70034987 14.05931588 -28.97558054 9.43230034 -23.66796875 5.09375 C-15.86588369 -0.2504892 -9.34036873 -0.95176584 0 0 Z " fill="#020202" transform="translate(373,46)"/>
<path d="M0 0 C5.9525218 5.54481483 8.14806502 11.20162639 8.5 19.3125 C8.20703857 27.89454647 5.36690114 33.32059886 -0.625 39.3125 C-8.49443634 44.11093679 -14.93721676 44.81606928 -24.1875 43.875 C-31.62564826 41.9008943 -36.04174315 36.51970661 -39.8203125 30.1015625 C-42.61470224 23.50680271 -42.48520926 15.63540752 -40.15625 8.88671875 C-36.63797441 2.44631983 -31.30018259 -2.45157176 -24.2421875 -4.76171875 C-15.14943266 -6.36937312 -7.62043351 -5.08028901 0 0 Z " fill="#020202" transform="translate(382.1875,192.125)"/>
<path d="M0 0 C6.42923471 3.5272853 11.34739397 8.85815719 13.640625 15.921875 C15.07841973 23.95211154 14.31715497 30.99293435 10.0078125 37.97265625 C7.7578125 40.72265625 7.7578125 40.72265625 5.0078125 42.97265625 C4.48960937 43.43800781 3.97140625 43.90335938 3.4375 44.3828125 C-2.04546743 48.64338675 -7.58612596 48.70224052 -14.359375 48.453125 C-22.03391123 47.43810569 -26.89800745 43.71078936 -31.80078125 37.9140625 C-35.9416456 31.1664901 -35.67503846 23.61533429 -34.9921875 15.97265625 C-33.30855128 9.31270286 -28.52975683 4.78811371 -22.9921875 0.97265625 C-16.2012576 -2.45733885 -7.1350262 -2.44975443 0 0 Z " fill="#020202" transform="translate(234.9921875,47.02734375)"/>
<path d="M0 0 C6.4321781 2.90610456 11.10437466 7.05490416 14.22265625 13.41015625 C16.54029629 20.59172247 16.15653281 28.84530474 12.96875 35.671875 C9.35603663 41.87963601 4.68931587 45.26577774 -1.90625 48.109375 C-10.41175919 49.32849798 -17.75949886 48.91563619 -24.8828125 43.88671875 C-30.24657654 39.17530439 -33.50313962 33.78833477 -34.125 26.5703125 C-34.36985104 19.1635686 -33.11268148 13.81617989 -29.34375 7.484375 C-20.88443491 -0.75803457 -11.55719583 -3.5417213 0 0 Z " fill="#020202" transform="translate(515.90625,46.890625)"/>
<path d="M0 0 C5.35538976 3.57025984 8.93519582 7.8320593 11 14 C12.02705897 22.55559501 11.79143024 29.80312579 6.640625 36.86328125 C2.84168122 41.5923788 -0.94432324 44.77842383 -7 46 C-15.23893707 46.81974311 -21.92320466 46.73685064 -28.87109375 41.91796875 C-34.28568716 37.03986716 -37.60554197 31.5265676 -38.23828125 24.265625 C-38.46164376 15.1900535 -36.84876922 9.84833159 -30.6875 3.1875 C-22.28489329 -4.57693405 -10.00530458 -5.55350614 0 0 Z " fill="#020202" transform="translate(520,190)"/>
<path d="M0 0 C4.92265499 3.86916852 8.29393762 7.87824677 10 14 C10.88019226 22.97548165 9.81365357 29.6516263 4.9375 37.1875 C0.5629988 41.92546124 -4.92626448 44.61350419 -11.29296875 45.4140625 C-20.66760135 45.65139497 -26.51581005 43.86628417 -33.4921875 37.546875 C-39.4087833 31.47699951 -39.41984687 24.63125333 -39.3359375 16.55078125 C-38.75646051 10.42584418 -36.52261419 6.39829645 -32.09765625 2.19140625 C-22.55445179 -5.44682074 -10.47719359 -6.72121853 0 0 Z " fill="#010101" transform="translate(239,191)"/>
</svg>
